<svg width="33" height="32" viewBox="0 0 33 32" fill="none" xmlns="http://www.w3.org/2000/svg">
<path d="M12.4167 17.3333C12.4167 16.781 11.969 16.3333 11.4167 16.3333C10.8644 16.3333 10.4167 16.781 10.4167 17.3333V22.6667C10.4167 23.219 10.8644 23.6667 11.4167 23.6667C11.969 23.6667 12.4167 23.219 12.4167 22.6667V17.3333Z" fill="white"/>
<path d="M22.0833 16.3333C22.6356 16.3333 23.0833 16.781 23.0833 17.3333V22.6667C23.0833 23.219 22.6356 23.6667 22.0833 23.6667C21.5311 23.6667 21.0833 23.219 21.0833 22.6667V17.3333C21.0833 16.781 21.5311 16.3333 22.0833 16.3333Z" fill="white"/>
<path d="M17.75 17.3333C17.75 16.781 17.3023 16.3333 16.75 16.3333C16.1977 16.3333 15.75 16.781 15.75 17.3333V22.6667C15.75 23.219 16.1977 23.6667 16.75 23.6667C17.3023 23.6667 17.75 23.219 17.75 22.6667V17.3333Z" fill="white"/>
<path fill-rule="evenodd" clip-rule="evenodd" d="M23.7817 4.63064C23.1477 4.38282 22.4373 4.34099 21.526 4.33436C21.1517 3.54549 20.3479 3 19.4167 3H14.0833C13.1521 3 12.3483 3.54549 11.9741 4.33436C11.0627 4.34099 10.3524 4.38282 9.71829 4.63064C8.96071 4.92673 8.30175 5.43006 7.8168 6.08307C7.32756 6.74185 7.0979 7.58624 6.7818 8.74845L5.94463 11.819C5.42796 12.0836 4.97586 12.4399 4.5987 12.9229C3.76938 13.9851 3.6225 15.2502 3.77004 16.7014C3.9132 18.1096 4.35652 19.8828 4.91148 22.1026L4.94668 22.2433C5.29758 23.647 5.58249 24.7867 5.92134 25.6762C6.27464 26.6036 6.72317 27.3636 7.46267 27.941C8.20216 28.5184 9.04834 28.7692 10.0337 28.887C10.9788 29 12.1536 29 13.6005 29H19.8994C21.3463 29 22.5211 29 23.4662 28.887C24.4516 28.7692 25.2977 28.5184 26.0372 27.941C26.7767 27.3636 27.2253 26.6036 27.5786 25.6762C27.9174 24.7867 28.2023 23.647 28.5532 22.2433L28.5884 22.1026C29.1434 19.8829 29.5867 18.1096 29.7299 16.7014C29.8774 15.2502 29.7305 13.9851 28.9012 12.9229C28.5241 12.4399 28.072 12.0836 27.5554 11.8191L26.7182 8.74843C26.4021 7.58624 26.1725 6.74185 25.6832 6.08307C25.1983 5.43006 24.5393 4.92673 23.7817 4.63064ZM10.4463 6.49342C10.7394 6.37888 11.0935 6.34518 11.9759 6.33625C12.351 7.123 13.1537 7.66667 14.0833 7.66667H19.4167C20.3463 7.66667 21.149 7.123 21.5241 6.33625C22.4065 6.34518 22.7606 6.37888 23.0537 6.49342C23.4616 6.65285 23.8164 6.92388 24.0776 7.2755C24.3124 7.59169 24.4502 8.03344 24.838 9.45593L25.3095 11.1849C23.9257 10.9999 22.1393 11 19.9198 11H13.5801C11.3607 11 9.57427 10.9999 8.19055 11.1849L8.66199 9.45593C9.04985 8.03344 9.18764 7.59169 9.42245 7.2755C9.68358 6.92388 10.0384 6.65285 10.4463 6.49342ZM14.0833 5C13.8993 5 13.75 5.14924 13.75 5.33333C13.75 5.51743 13.8993 5.66667 14.0833 5.66667H19.4167C19.6008 5.66667 19.75 5.51743 19.75 5.33333C19.75 5.14924 19.6008 5 19.4167 5H14.0833ZM6.17511 14.1538C6.54689 13.6776 7.13486 13.3577 8.34975 13.182C9.5906 13.0025 11.273 13 13.6628 13H19.8371C22.2269 13 23.9093 13.0025 25.1502 13.182C26.365 13.3577 26.953 13.6776 27.3248 14.1538C27.6966 14.6299 27.8643 15.2779 27.7401 16.4992C27.6133 17.7465 27.2077 19.3793 26.6281 21.6978C26.2584 23.1765 26.0009 24.1995 25.7096 24.9642C25.4278 25.7038 25.152 26.0948 24.8064 26.3646C24.4609 26.6344 24.0146 26.8072 23.2288 26.9012C22.4162 26.9983 21.3613 27 19.8371 27H13.6628C12.1386 27 11.0837 26.9983 10.2712 26.9012C9.48534 26.8072 9.03904 26.6344 8.69349 26.3646C8.34794 26.0948 8.07206 25.7038 7.79031 24.9642C7.49898 24.1995 7.24152 23.1765 6.87183 21.6978C6.29223 19.3793 5.88659 17.7465 5.75978 16.4992C5.63563 15.2779 5.80333 14.6299 6.17511 14.1538Z" fill="white"/>
<path d="M12.4167 17.3333C12.4167 16.781 11.969 16.3333 11.4167 16.3333C10.8644 16.3333 10.4167 16.781 10.4167 17.3333V22.6667C10.4167 23.219 10.8644 23.6667 11.4167 23.6667C11.969 23.6667 12.4167 23.219 12.4167 22.6667V17.3333Z" stroke="white"/>
<path d="M22.0833 16.3333C22.6356 16.3333 23.0833 16.781 23.0833 17.3333V22.6667C23.0833 23.219 22.6356 23.6667 22.0833 23.6667C21.5311 23.6667 21.0833 23.219 21.0833 22.6667V17.3333C21.0833 16.781 21.5311 16.3333 22.0833 16.3333Z" stroke="white"/>
<path d="M17.75 17.3333C17.75 16.781 17.3023 16.3333 16.75 16.3333C16.1977 16.3333 15.75 16.781 15.75 17.3333V22.6667C15.75 23.219 16.1977 23.6667 16.75 23.6667C17.3023 23.6667 17.75 23.219 17.75 22.6667V17.3333Z" stroke="white"/>
<path fill-rule="evenodd" clip-rule="evenodd" d="M23.7817 4.63064C23.1477 4.38282 22.4373 4.34099 21.526 4.33436C21.1517 3.54549 20.3479 3 19.4167 3H14.0833C13.1521 3 12.3483 3.54549 11.9741 4.33436C11.0627 4.34099 10.3524 4.38282 9.71829 4.63064C8.96071 4.92673 8.30175 5.43006 7.8168 6.08307C7.32756 6.74185 7.0979 7.58624 6.7818 8.74845L5.94463 11.819C5.42796 12.0836 4.97586 12.4399 4.5987 12.9229C3.76938 13.9851 3.6225 15.2502 3.77004 16.7014C3.9132 18.1096 4.35652 19.8828 4.91148 22.1026L4.94668 22.2433C5.29758 23.647 5.58249 24.7867 5.92134 25.6762C6.27464 26.6036 6.72317 27.3636 7.46267 27.941C8.20216 28.5184 9.04834 28.7692 10.0337 28.887C10.9788 29 12.1536 29 13.6005 29H19.8994C21.3463 29 22.5211 29 23.4662 28.887C24.4516 28.7692 25.2977 28.5184 26.0372 27.941C26.7767 27.3636 27.2253 26.6036 27.5786 25.6762C27.9174 24.7867 28.2023 23.647 28.5532 22.2433L28.5884 22.1026C29.1434 19.8829 29.5867 18.1096 29.7299 16.7014C29.8774 15.2502 29.7305 13.9851 28.9012 12.9229C28.5241 12.4399 28.072 12.0836 27.5554 11.8191L26.7182 8.74843C26.4021 7.58624 26.1725 6.74185 25.6832 6.08307C25.1983 5.43006 24.5393 4.92673 23.7817 4.63064ZM10.4463 6.49342C10.7394 6.37888 11.0935 6.34518 11.9759 6.33625C12.351 7.123 13.1537 7.66667 14.0833 7.66667H19.4167C20.3463 7.66667 21.149 7.123 21.5241 6.33625C22.4065 6.34518 22.7606 6.37888 23.0537 6.49342C23.4616 6.65285 23.8164 6.92388 24.0776 7.2755C24.3124 7.59169 24.4502 8.03344 24.838 9.45593L25.3095 11.1849C23.9257 10.9999 22.1393 11 19.9198 11H13.5801C11.3607 11 9.57427 10.9999 8.19055 11.1849L8.66199 9.45593C9.04985 8.03344 9.18764 7.59169 9.42245 7.2755C9.68358 6.92388 10.0384 6.65285 10.4463 6.49342ZM14.0833 5C13.8993 5 13.75 5.14924 13.75 5.33333C13.75 5.51743 13.8993 5.66667 14.0833 5.66667H19.4167C19.6008 5.66667 19.75 5.51743 19.75 5.33333C19.75 5.14924 19.6008 5 19.4167 5H14.0833ZM6.17511 14.1538C6.54689 13.6776 7.13486 13.3577 8.34975 13.182C9.5906 13.0025 11.273 13 13.6628 13H19.8371C22.2269 13 23.9093 13.0025 25.1502 13.182C26.365 13.3577 26.953 13.6776 27.3248 14.1538C27.6966 14.6299 27.8643 15.2779 27.7401 16.4992C27.6133 17.7465 27.2077 19.3793 26.6281 21.6978C26.2584 23.1765 26.0009 24.1995 25.7096 24.9642C25.4278 25.7038 25.152 26.0948 24.8064 26.3646C24.4609 26.6344 24.0146 26.8072 23.2288 26.9012C22.4162 26.9983 21.3613 27 19.8371 27H13.6628C12.1386 27 11.0837 26.9983 10.2712 26.9012C9.48534 26.8072 9.03904 26.6344 8.69349 26.3646C8.34794 26.0948 8.07206 25.7038 7.79031 24.9642C7.49898 24.1995 7.24152 23.1765 6.87183 21.6978C6.29223 19.3793 5.88659 17.7465 5.75978 16.4992C5.63563 15.2779 5.80333 14.6299 6.17511 14.1538Z" stroke="white"/>
</svg>
