<svg width="31" height="30" viewBox="0 0 31 30" fill="none" xmlns="http://www.w3.org/2000/svg">
<path d="M23.3971 18.5201C23.0216 19.351 22.5189 20.1119 21.9125 20.7773C21.8834 20.8092 21.8543 20.841 21.8243 20.8728C21.8098 20.8883 21.7953 20.9037 21.7807 20.9192C21.7398 20.9628 21.698 21.0055 21.6553 21.0483C21.6389 21.0646 21.6225 21.081 21.6062 21.0973C21.5734 21.1292 21.5407 21.1619 21.508 21.1928C21.4934 21.2064 21.4789 21.221 21.4643 21.2346C21.4198 21.2773 21.3743 21.3192 21.3289 21.3601C21.3143 21.3728 21.2998 21.3855 21.2853 21.3992C21.2489 21.4319 21.2125 21.4637 21.1762 21.4955C21.1616 21.5083 21.1471 21.521 21.1325 21.5337C21.0843 21.5746 21.0362 21.6155 20.9871 21.6555C20.9762 21.6646 20.9643 21.6737 20.9534 21.6828C20.9125 21.7164 20.8707 21.7492 20.8298 21.781C20.8153 21.7919 20.8007 21.8037 20.7862 21.8146C20.7353 21.8546 20.6834 21.8937 20.6307 21.9319C20.6243 21.9364 20.618 21.941 20.6116 21.9455C20.5643 21.9801 20.5162 22.0146 20.468 22.0483C20.4534 22.0583 20.4398 22.0683 20.4253 22.0783C20.3716 22.1155 20.318 22.1519 20.2643 22.1873C20.2634 22.1883 20.2625 22.1883 20.2616 22.1892C20.2062 22.2255 20.1498 22.2619 20.0934 22.2973C20.0798 22.3055 20.0662 22.3146 20.0516 22.3228C20.0007 22.3546 19.9498 22.3855 19.898 22.4155C19.8916 22.4192 19.8853 22.4228 19.8789 22.4273C19.8207 22.461 19.7625 22.4946 19.7044 22.5264C19.6916 22.5337 19.6789 22.541 19.6653 22.5473C19.6143 22.5755 19.5634 22.6028 19.5125 22.6292C19.5025 22.6346 19.4925 22.6392 19.4834 22.6446C19.4234 22.6755 19.3634 22.7055 19.3034 22.7355C19.2916 22.741 19.2807 22.7464 19.2689 22.7519C19.2171 22.7773 19.1644 22.8019 19.1116 22.8255C19.0998 22.831 19.0871 22.8364 19.0753 22.8419C19.0134 22.8701 18.9516 22.8973 18.8889 22.9237C18.8798 22.9273 18.8716 22.931 18.8625 22.9346C18.808 22.9573 18.7525 22.9801 18.6971 23.0019C18.6834 23.0073 18.6698 23.0128 18.6562 23.0183C18.5925 23.0428 18.5289 23.0673 18.4644 23.091C18.4607 23.0928 18.4562 23.0937 18.4525 23.0955C18.3925 23.1173 18.3316 23.1383 18.2707 23.1592C18.2562 23.1637 18.2416 23.1692 18.2262 23.1737C18.0962 23.2164 17.9653 23.2564 17.8325 23.2937C17.8171 23.2983 17.8025 23.3019 17.7871 23.3064C17.7262 23.3228 17.6653 23.3392 17.6044 23.3537C17.598 23.3555 17.5916 23.3573 17.5853 23.3583C17.5189 23.3746 17.4516 23.3901 17.3834 23.4055C17.368 23.4092 17.3534 23.4119 17.338 23.4155C17.2798 23.4283 17.2216 23.4401 17.1634 23.451C17.1516 23.4528 17.1407 23.4555 17.1289 23.4573C17.0616 23.4701 16.9934 23.4819 16.9253 23.4937C16.9116 23.4964 16.8971 23.4983 16.8834 23.5001C16.8253 23.5092 16.768 23.5183 16.7098 23.5264C16.6953 23.5283 16.6807 23.531 16.6662 23.5328C16.5971 23.5419 16.528 23.5501 16.4589 23.5583C16.4471 23.5592 16.4353 23.561 16.4234 23.5619C16.3644 23.5683 16.3044 23.5737 16.2444 23.5792C16.228 23.581 16.2116 23.5819 16.1944 23.5837C16.1244 23.5892 16.0544 23.5937 15.9834 23.5983C15.9762 23.5983 15.9689 23.5992 15.9616 23.5992C15.898 23.6028 15.8334 23.6046 15.7698 23.6073C15.7525 23.6083 15.7344 23.6083 15.7171 23.6092C15.6462 23.611 15.5744 23.6119 15.5034 23.6119C10.7244 23.6119 6.84891 19.7437 6.84891 14.971C6.84891 10.1982 10.7235 6.33003 15.5034 6.33003C15.5753 6.33003 15.6462 6.33094 15.7171 6.33276C15.7344 6.33276 15.7525 6.33367 15.7698 6.33458C15.8344 6.3364 15.898 6.33912 15.9616 6.34276C15.9689 6.34276 15.9762 6.34367 15.9834 6.34367C16.0534 6.34731 16.1244 6.35276 16.1944 6.35822C16.2107 6.35913 16.2271 6.36094 16.2444 6.36276C16.3044 6.36822 16.3634 6.37367 16.4234 6.38003C16.4353 6.38094 16.4471 6.38276 16.4589 6.38367C16.528 6.39094 16.5971 6.40003 16.6662 6.40913C16.6807 6.41094 16.6953 6.41276 16.7098 6.41549C16.768 6.42367 16.8262 6.43185 16.8834 6.44185C16.8971 6.44367 16.9116 6.4464 16.9253 6.44822C16.9934 6.45913 17.0616 6.47185 17.1289 6.48458C17.1407 6.4864 17.1516 6.48913 17.1634 6.49094C17.2216 6.50185 17.2798 6.51458 17.338 6.5264C17.3534 6.53003 17.368 6.53276 17.3834 6.5364C17.4507 6.55094 17.518 6.5664 17.5853 6.58367C17.5916 6.58549 17.598 6.58731 17.6044 6.58822C17.6653 6.60367 17.7262 6.61913 17.7871 6.63549C17.8025 6.64003 17.8171 6.64367 17.8325 6.64822C17.9653 6.68549 18.0962 6.72458 18.2262 6.76822C18.2407 6.77276 18.2553 6.77822 18.2707 6.78276C18.3316 6.80367 18.3925 6.82458 18.4525 6.8464C18.4562 6.84822 18.4607 6.84913 18.4644 6.85094C18.5289 6.87458 18.5925 6.89822 18.6562 6.92367C18.6698 6.92913 18.6834 6.93458 18.6971 6.94004C18.7525 6.96185 18.808 6.98458 18.8625 7.00731C18.8716 7.01094 18.8798 7.01458 18.8889 7.01822C18.9516 7.04458 19.0134 7.07185 19.0753 7.10004C19.0871 7.10549 19.0998 7.11094 19.1116 7.1164C19.1644 7.14094 19.2162 7.16549 19.2689 7.19004C19.2807 7.19549 19.2916 7.20094 19.3034 7.2064C19.3644 7.23549 19.4243 7.2664 19.4834 7.29731C19.4934 7.30276 19.5034 7.30731 19.5125 7.31276C19.5634 7.33913 19.6143 7.36731 19.6653 7.39458C19.678 7.40185 19.6916 7.40913 19.7044 7.41549C19.7625 7.44822 19.8216 7.48095 19.8789 7.51458C19.8853 7.51822 19.8916 7.52186 19.898 7.5264C19.9498 7.5564 20.0007 7.58822 20.0516 7.61913C20.0653 7.62731 20.0789 7.6364 20.0934 7.64458C20.1498 7.68004 20.2062 7.71549 20.2616 7.75276C20.2625 7.75367 20.2634 7.75367 20.2643 7.75458C20.3189 7.79004 20.3725 7.8264 20.4253 7.86367C20.4398 7.87367 20.4534 7.88367 20.468 7.89367C20.5162 7.92731 20.5643 7.96186 20.6116 7.9964C20.618 8.00095 20.6243 8.00549 20.6307 8.01004C20.6825 8.04822 20.7343 8.08731 20.7862 8.12731C20.8007 8.13822 20.8153 8.15004 20.8298 8.16095C20.8716 8.19367 20.9125 8.2264 20.9534 8.25913C20.9643 8.26822 20.9762 8.27731 20.9871 8.2864C21.0362 8.3264 21.0843 8.36731 21.1325 8.40822C21.1471 8.42095 21.1616 8.43368 21.1762 8.4464C21.2125 8.47822 21.2498 8.51095 21.2853 8.54277C21.2998 8.55549 21.3143 8.56822 21.3289 8.58186C21.3743 8.62368 21.4198 8.66549 21.4643 8.70731C21.4789 8.72095 21.4934 8.7355 21.508 8.74913C21.5407 8.78095 21.5734 8.81277 21.6062 8.84458C21.6225 8.86095 21.6389 8.87731 21.6553 8.89368C21.6971 8.9364 21.7389 8.97913 21.7807 9.02277C21.7953 9.03822 21.8098 9.05368 21.8243 9.06913C21.8543 9.10095 21.8834 9.13277 21.9125 9.16459C22.518 9.83095 23.0216 10.591 23.3971 11.4219H25.6416C25.3643 10.6337 24.9962 9.88822 24.5507 9.1964H24.5516C23.8216 8.06277 22.8834 7.0764 21.7907 6.29003C21.7898 6.28913 21.7889 6.28912 21.788 6.28822C21.5707 6.13185 21.3471 5.98367 21.118 5.84367C21.1125 5.84003 21.1071 5.83731 21.1025 5.83367C21.0498 5.80185 20.9971 5.77003 20.9434 5.73821C20.9398 5.7364 20.9362 5.73367 20.9316 5.73185C20.7598 5.63185 20.5862 5.5364 20.4089 5.44549C20.3998 5.44094 20.3907 5.4364 20.3825 5.43185C20.3325 5.4064 20.2825 5.38185 20.2325 5.3573C20.2225 5.35276 20.2134 5.34821 20.2034 5.34276C20.1471 5.31549 20.0898 5.28821 20.0334 5.26185C20.0316 5.26094 20.0307 5.26094 20.0289 5.26003C19.9089 5.20458 19.788 5.15185 19.6662 5.10094C19.6544 5.09549 19.6416 5.09094 19.6298 5.08639C19.5816 5.06639 19.5334 5.0473 19.4853 5.02821C19.4707 5.02276 19.4571 5.0173 19.4425 5.01185C19.3925 4.99185 19.3425 4.97276 19.2916 4.95458C19.2816 4.95094 19.2707 4.94639 19.2607 4.94276C19.1389 4.8973 19.0153 4.85458 18.8907 4.81367C18.8762 4.80912 18.8616 4.80458 18.8471 4.80003C18.7998 4.78458 18.7525 4.77003 18.7053 4.75548C18.6871 4.75003 18.6698 4.74458 18.6516 4.73912C18.6053 4.72548 18.5589 4.71094 18.5116 4.69821C18.4953 4.69367 18.4798 4.68912 18.4634 4.68458C18.4016 4.6673 18.3407 4.65003 18.278 4.63367H18.2771C18.2134 4.6173 18.1498 4.60094 18.0862 4.58548C18.0707 4.58185 18.0553 4.57821 18.0398 4.57458C17.9925 4.56276 17.9444 4.55185 17.8971 4.54094C17.8771 4.53639 17.8562 4.53185 17.8362 4.5273C17.7916 4.5173 17.7471 4.50821 17.7025 4.49912C17.6825 4.49457 17.6625 4.49094 17.6425 4.4873C17.5907 4.4773 17.5389 4.4673 17.4871 4.4573C17.4753 4.45548 17.4634 4.45276 17.4507 4.45094C17.3862 4.43912 17.3216 4.42821 17.2571 4.41821C17.2425 4.41548 17.228 4.41367 17.2125 4.41094C17.1625 4.40276 17.1134 4.39548 17.0634 4.38821C17.0416 4.38548 17.0198 4.38185 16.998 4.37912C16.9534 4.37276 16.9098 4.3673 16.8653 4.36185C16.8434 4.35912 16.8207 4.35639 16.7989 4.35367C16.7516 4.34821 16.7034 4.34276 16.6553 4.33821C16.6371 4.33639 16.6198 4.33458 16.6016 4.33276C16.5362 4.32639 16.4707 4.32003 16.4053 4.31548C16.3944 4.31457 16.3834 4.31367 16.3725 4.31276C16.318 4.30821 16.2625 4.30457 16.2071 4.30094C16.1853 4.30003 16.1634 4.29821 16.1407 4.2973C16.0962 4.29457 16.0507 4.29276 16.0053 4.29094C15.9816 4.29003 15.958 4.28912 15.9344 4.28821C15.888 4.28639 15.8416 4.28548 15.7953 4.28367C15.7744 4.28276 15.7534 4.28276 15.7325 4.28185C15.6662 4.28094 15.5989 4.28003 15.5316 4.28003C14.0525 4.28003 12.6444 4.57912 11.3625 5.12003C11.2025 5.1873 11.0444 5.25912 10.888 5.33458C10.8098 5.37185 10.7325 5.41094 10.6553 5.45003C10.5016 5.52912 10.3498 5.61094 10.1998 5.69731C9.97527 5.8264 9.75618 5.96276 9.54254 6.1064C9.39982 6.20276 9.25982 6.30185 9.12255 6.40458C9.05345 6.45549 8.98527 6.50822 8.918 6.56094C6.42255 8.51913 4.81982 11.5591 4.81982 14.9737C4.81982 18.3882 6.42255 21.4292 8.918 23.3864C8.98527 23.4392 9.05345 23.4919 9.12255 23.5428C9.25982 23.6455 9.39982 23.7446 9.54254 23.841C9.75618 23.9855 9.97527 24.1219 10.1998 24.2501C10.3489 24.3355 10.5007 24.4183 10.6553 24.4974C10.7325 24.5364 10.8098 24.5755 10.888 24.6128C11.0444 24.6883 11.2025 24.7592 11.3625 24.8274C12.6444 25.3683 14.0525 25.6674 15.5316 25.6674C15.5989 25.6674 15.6653 25.6664 15.7325 25.6655C15.7534 25.6655 15.7744 25.6646 15.7953 25.6637C15.8416 25.6628 15.888 25.661 15.9344 25.6592C15.958 25.6583 15.9816 25.6574 16.0053 25.6564C16.0507 25.6546 16.0953 25.6519 16.1407 25.6501C16.1625 25.6492 16.1853 25.6474 16.2071 25.6464C16.2625 25.6428 16.3171 25.6392 16.3725 25.6346C16.3834 25.6337 16.3944 25.6328 16.4053 25.6319C16.4707 25.6264 16.5362 25.621 16.6016 25.6146C16.6198 25.6128 16.6371 25.611 16.6553 25.6092C16.7034 25.6046 16.7507 25.5992 16.7989 25.5937C16.8216 25.591 16.8434 25.5883 16.8653 25.5855C16.9098 25.5801 16.9544 25.5746 16.998 25.5683C17.0198 25.5655 17.0416 25.5628 17.0634 25.5592C17.1134 25.5519 17.1634 25.5446 17.2125 25.5364C17.2271 25.5337 17.2416 25.5319 17.2571 25.5292C17.3216 25.5192 17.3862 25.5074 17.4507 25.4964C17.4625 25.4946 17.4744 25.4919 17.4871 25.4901C17.5389 25.4801 17.5907 25.471 17.6425 25.4601C17.6625 25.4564 17.6825 25.4519 17.7025 25.4483C17.7471 25.4392 17.7916 25.4301 17.8362 25.4201C17.8562 25.4155 17.8771 25.411 17.8971 25.4064C17.9453 25.3955 17.9925 25.3846 18.0398 25.3728C18.0553 25.3692 18.0707 25.3655 18.0862 25.3619C18.1498 25.3464 18.2134 25.3301 18.2771 25.3137H18.278C18.3398 25.2974 18.4016 25.2801 18.4634 25.2628C18.4798 25.2583 18.4953 25.2537 18.5116 25.2492C18.558 25.2355 18.6053 25.2219 18.6516 25.2083C18.6698 25.2028 18.6871 25.1974 18.7053 25.1919C18.7525 25.1774 18.7998 25.1619 18.8471 25.1474C18.8616 25.1428 18.8762 25.1383 18.8907 25.1337C19.0153 25.0928 19.138 25.0501 19.2607 25.0046C19.2707 25.001 19.2816 24.9964 19.2916 24.9928C19.3425 24.9737 19.3925 24.9546 19.4425 24.9355C19.4571 24.9301 19.4707 24.9246 19.4853 24.9192C19.5334 24.9001 19.5816 24.8801 19.6298 24.861C19.6416 24.8564 19.6544 24.851 19.6662 24.8464C19.788 24.7955 19.9089 24.7428 20.0289 24.6874C20.0307 24.6864 20.0316 24.6864 20.0334 24.6855C20.0907 24.6592 20.1471 24.6319 20.2034 24.6046C20.2134 24.6001 20.2225 24.5955 20.2325 24.5901C20.2825 24.5655 20.3325 24.541 20.3825 24.5155C20.3916 24.511 20.4007 24.5064 20.4089 24.5019C20.5862 24.411 20.7607 24.3155 20.9316 24.2155C20.9353 24.2137 20.9389 24.211 20.9434 24.2092C20.9971 24.1783 21.0498 24.1464 21.1025 24.1137C21.108 24.1101 21.1134 24.1074 21.118 24.1037C21.3471 23.9637 21.5707 23.8155 21.788 23.6592C21.7889 23.6583 21.7898 23.6583 21.7907 23.6573C22.8834 22.871 23.8216 21.8846 24.5516 20.751H24.5507C24.9962 20.0592 25.3634 19.3137 25.6416 18.5255H23.3971V18.5201Z" fill="white"/>
<path d="M30.4564 13.8164C30.4555 13.8073 30.4545 13.7973 30.4536 13.7882H24.0682C24.1209 14.1737 24.1482 14.5664 24.1482 14.9664C24.1482 15.3691 24.12 15.7664 24.0664 16.1546H24.0782H26.1809H28.3027C28.2309 16.9373 28.09 17.7 27.8836 18.4364C27.8755 18.4646 27.8673 18.4928 27.8591 18.521C26.3173 23.8819 21.3709 27.8046 15.5055 27.8046C8.4073 27.8046 2.65276 22.0591 2.65276 14.9719C2.65276 14.4237 2.68731 13.8837 2.75458 13.3537C2.82458 12.8246 2.92912 12.2937 3.06822 11.7637C4.87276 4.9091 11.9009 0.813639 18.7664 2.61546C23.2618 3.79546 26.5718 7.21184 27.8146 11.3546H30.0373C29.8491 10.6155 29.6055 9.89457 29.31 9.1973H29.3436C27.0791 3.79546 21.7364 0 15.5055 0C7.86639 0 1.56094 5.70456 0.629128 13.0791C-0.347235 20.4482 4.29821 27.5655 11.6864 29.5046C18.5109 31.2955 25.4727 28.0901 28.6855 22.1564L28.6645 22.151C29.2836 21.021 29.7627 19.8037 30.0745 18.521C30.0818 18.4928 30.0891 18.4646 30.0955 18.4364C30.2709 17.6955 30.3927 16.9337 30.4536 16.1546C30.4545 16.1455 30.4555 16.1355 30.4564 16.1264C30.4855 15.7455 30.5 15.36 30.5 14.9719C30.5 14.5828 30.4855 14.1973 30.4564 13.8164Z" fill="white"/>
</svg>
