<svg width="32" height="32" viewBox="0 0 32 32" fill="none" xmlns="http://www.w3.org/2000/svg">
<path d="M15 24.0001C15 24.5524 15.4477 25.0001 16 25.0001C16.5523 25.0001 17 24.5524 17 24.0001V20.0001C17 19.4478 16.5523 19.0001 16 19.0001C15.4477 19.0001 15 19.4478 15 20.0001V24.0001Z" fill="white"/>
<path fill-rule="evenodd" clip-rule="evenodd" d="M16 1.66675C15.0333 1.66675 14.1512 1.93223 13.1857 2.38289C12.2511 2.81913 11.1703 3.46296 9.8158 4.26985L7.87498 5.42599C6.38283 6.31483 5.19382 7.02311 4.29356 7.7004C3.3642 8.39958 2.66667 9.11955 2.21212 10.0677C1.75733 11.0163 1.63407 12.0091 1.67361 13.1679C1.71188 14.2894 1.90809 15.653 2.15411 17.3626L2.54391 20.0717C2.86043 22.2715 3.1116 24.0172 3.48684 25.3763C3.87366 26.7773 4.42249 27.8893 5.41289 28.7421C6.40247 29.5942 7.58648 29.9753 9.03515 30.157C10.4421 30.3334 12.2171 30.3334 14.4564 30.3334H17.5436C19.7829 30.3334 21.558 30.3334 22.9649 30.157C24.4136 29.9753 25.5976 29.5942 26.5872 28.7421C27.5776 27.8893 28.1264 26.7773 28.5132 25.3763C28.8884 24.0172 29.1396 22.2715 29.4561 20.0717L29.846 17.3626C30.092 15.6529 30.2882 14.2894 30.3264 13.1679C30.366 12.0091 30.2427 11.0163 29.7879 10.0677C29.3334 9.11955 28.6358 8.39958 27.7065 7.7004C26.8062 7.02311 25.6172 6.31483 24.1251 5.42599L22.1843 4.26985C20.8297 3.46296 19.7489 2.81912 18.8143 2.38289C17.8488 1.93223 16.9668 1.66675 16 1.66675ZM10.7941 6.01503C12.2041 5.1751 13.199 4.58383 14.0316 4.19519C14.8438 3.81612 15.4277 3.66675 16 3.66675C16.5724 3.66675 17.1563 3.81612 17.9684 4.19519C18.8011 4.58383 19.7959 5.1751 21.2059 6.01503L23.0524 7.11495C24.6048 8.03971 25.7003 8.69387 26.5041 9.29862C27.2887 9.8889 27.7184 10.3773 27.9845 10.9323C28.2503 11.4868 28.3609 12.1246 28.3276 13.0997C28.2935 14.0995 28.1142 15.3552 27.8581 17.1348L27.4864 19.718C27.1578 22.0022 26.9228 23.6217 26.5853 24.844C26.2555 26.0386 25.8585 26.7303 25.2821 27.2265C24.705 27.7235 23.9568 28.017 22.716 28.1726C21.448 28.3316 19.7984 28.3334 17.4748 28.3334H14.5253C12.2017 28.3334 10.5521 28.3316 9.28401 28.1726C8.04329 28.017 7.29507 27.7235 6.7179 27.2265C6.14154 26.7303 5.74452 26.0386 5.41471 24.844C5.07723 23.6217 4.84229 22.0022 4.51361 19.718L4.14193 17.1348C3.88585 15.3552 3.70656 14.0995 3.67245 13.0997C3.63918 12.1246 3.74974 11.4868 4.01558 10.9323C4.28163 10.3773 4.71132 9.8889 5.49593 9.29862C6.29977 8.69387 7.39526 8.03972 8.94768 7.11495L10.7941 6.01503Z" fill="white"/>
</svg>
