<svg width="56" height="70" viewBox="0 0 56 70" fill="none" xmlns="http://www.w3.org/2000/svg">
<path d="M39.4421 33.022C38.8981 34.2224 38.1696 35.3217 37.2911 36.2831C37.2489 36.3291 37.2068 36.375 37.1633 36.421C37.1422 36.4433 37.1212 36.4656 37.1001 36.488C37.0408 36.551 36.9802 36.6127 36.9183 36.6745C36.8946 36.6981 36.8709 36.7218 36.8472 36.7454C36.7998 36.7914 36.7523 36.8386 36.7049 36.8833C36.6838 36.903 36.6628 36.924 36.6417 36.9437C36.5772 37.0054 36.5113 37.0659 36.4454 37.125C36.4244 37.1433 36.4033 37.1617 36.3822 37.1814C36.3295 37.2287 36.2768 37.2747 36.2241 37.3206C36.2031 37.339 36.182 37.3574 36.1609 37.3758C36.0911 37.4349 36.0213 37.494 35.9502 37.5518C35.9344 37.5649 35.9172 37.5781 35.9014 37.5912C35.8422 37.6398 35.7816 37.6871 35.7223 37.733C35.7012 37.7488 35.6801 37.7659 35.6591 37.7816C35.5853 37.8394 35.5102 37.8959 35.4338 37.9511C35.4246 37.9576 35.4154 37.9642 35.4062 37.9708C35.3377 38.0207 35.2679 38.0706 35.1981 38.1192C35.177 38.1336 35.1572 38.1481 35.1361 38.1625C35.0584 38.2164 34.9807 38.2689 34.903 38.3201C34.9017 38.3214 34.9004 38.3214 34.899 38.3227C34.8187 38.3753 34.737 38.4278 34.6554 38.479C34.6356 38.4909 34.6159 38.504 34.5948 38.5158C34.521 38.5618 34.4473 38.6064 34.3722 38.6498C34.3629 38.655 34.3537 38.6603 34.3445 38.6668C34.2602 38.7154 34.1759 38.764 34.0916 38.81C34.0732 38.8205 34.0547 38.831 34.035 38.8402C33.9612 38.8809 33.8874 38.9203 33.8137 38.9584C33.7992 38.9663 33.7847 38.9729 33.7715 38.9807C33.6846 39.0254 33.5977 39.0687 33.5107 39.1121C33.4936 39.12 33.4778 39.1278 33.4607 39.1357C33.3856 39.1725 33.3092 39.2079 33.2328 39.2421C33.2157 39.25 33.1972 39.2579 33.1801 39.2657C33.0905 39.3065 33.001 39.3459 32.9101 39.3839C32.8969 39.3892 32.8851 39.3944 32.8719 39.3997C32.7929 39.4325 32.7125 39.4654 32.6322 39.4969C32.6124 39.5048 32.5926 39.5127 32.5729 39.5205C32.4807 39.556 32.3885 39.5915 32.295 39.6256C32.2897 39.6282 32.2831 39.6295 32.2778 39.6322C32.1909 39.6637 32.1026 39.6939 32.0144 39.7241C31.9933 39.7307 31.9722 39.7386 31.9498 39.7451C31.7615 39.8068 31.5718 39.8646 31.3795 39.9185C31.3571 39.925 31.336 39.9303 31.3136 39.9369C31.2254 39.9605 31.1371 39.9842 31.0489 40.0052C31.0397 40.0078 31.0304 40.0104 31.0212 40.0117C30.9251 40.0354 30.8276 40.0577 30.7288 40.08C30.7064 40.0853 30.6853 40.0892 30.6629 40.0945C30.5786 40.1129 30.4943 40.1299 30.41 40.1457C30.3929 40.1483 30.3771 40.1523 30.36 40.1549C30.2625 40.1733 30.1637 40.1903 30.0649 40.2074C30.0452 40.2114 30.0241 40.214 30.0043 40.2166C29.92 40.2297 29.8371 40.2429 29.7528 40.2547C29.7317 40.2573 29.7106 40.2613 29.6895 40.2639C29.5894 40.277 29.4893 40.2889 29.3892 40.3007C29.3721 40.302 29.355 40.3046 29.3378 40.3059C29.2522 40.3151 29.1653 40.323 29.0784 40.3309C29.0546 40.3335 29.0309 40.3348 29.0059 40.3374C28.9045 40.3453 28.8031 40.3519 28.7003 40.3585C28.6898 40.3585 28.6792 40.3598 28.6687 40.3598C28.5765 40.365 28.483 40.3677 28.3908 40.3716C28.3658 40.3729 28.3394 40.3729 28.3144 40.3742C28.2116 40.3768 28.1076 40.3782 28.0048 40.3782C21.0803 40.3782 15.4651 34.7898 15.4651 27.8946C15.4651 20.9995 21.079 15.4111 28.0048 15.4111C28.1089 15.4111 28.2116 15.4124 28.3144 15.415C28.3394 15.415 28.3658 15.4164 28.3908 15.4177C28.4843 15.4203 28.5765 15.4242 28.6687 15.4295C28.6792 15.4295 28.6898 15.4308 28.7003 15.4308C28.8017 15.4361 28.9045 15.4439 29.0059 15.4518C29.0296 15.4531 29.0533 15.4558 29.0784 15.4584C29.1653 15.4663 29.2509 15.4741 29.3378 15.4833C29.355 15.4846 29.3721 15.4873 29.3892 15.4886C29.4893 15.4991 29.5894 15.5122 29.6895 15.5254C29.7106 15.528 29.7317 15.5306 29.7528 15.5346C29.8371 15.5464 29.9214 15.5582 30.0043 15.5726C30.0241 15.5753 30.0452 15.5792 30.0649 15.5818C30.1637 15.5976 30.2625 15.616 30.36 15.6344C30.3771 15.637 30.3929 15.6409 30.41 15.6436C30.4943 15.6593 30.5786 15.6777 30.6629 15.6948C30.6853 15.7 30.7064 15.704 30.7288 15.7092C30.8263 15.7302 30.9237 15.7526 31.0212 15.7775C31.0304 15.7802 31.0397 15.7828 31.0489 15.7841C31.1371 15.8064 31.2254 15.8287 31.3136 15.8524C31.336 15.859 31.3571 15.8642 31.3795 15.8708C31.5718 15.9246 31.7615 15.9811 31.9498 16.0441C31.9709 16.0507 31.992 16.0586 32.0144 16.0652C32.1026 16.0954 32.1909 16.1256 32.2778 16.1571C32.2831 16.1597 32.2897 16.161 32.295 16.1637C32.3885 16.1978 32.4807 16.232 32.5729 16.2687C32.5926 16.2766 32.6124 16.2845 32.6322 16.2924C32.7125 16.3239 32.7929 16.3567 32.8719 16.3896C32.8851 16.3948 32.8969 16.4001 32.9101 16.4053C33.001 16.4434 33.0905 16.4828 33.1801 16.5235C33.1972 16.5314 33.2157 16.5393 33.2328 16.5472C33.3092 16.5826 33.3843 16.6181 33.4607 16.6535C33.4778 16.6614 33.4936 16.6693 33.5107 16.6772C33.599 16.7192 33.6859 16.7639 33.7715 16.8085C33.786 16.8164 33.8005 16.823 33.8137 16.8308C33.8874 16.8689 33.9612 16.9096 34.035 16.949C34.0534 16.9596 34.0732 16.9701 34.0916 16.9793C34.1759 17.0265 34.2615 17.0738 34.3445 17.1224C34.3537 17.1277 34.3629 17.1329 34.3722 17.1395C34.4473 17.1828 34.521 17.2288 34.5948 17.2735C34.6145 17.2853 34.6343 17.2984 34.6554 17.3102C34.737 17.3614 34.8187 17.4127 34.899 17.4665C34.9004 17.4678 34.9017 17.4678 34.903 17.4691C34.982 17.5204 35.0597 17.5729 35.1361 17.6267C35.1572 17.6412 35.177 17.6556 35.1981 17.6701C35.2679 17.7187 35.3377 17.7686 35.4062 17.8185C35.4154 17.8251 35.4246 17.8316 35.4338 17.8382C35.5089 17.8934 35.584 17.9498 35.6591 18.0076C35.6801 18.0234 35.7012 18.0405 35.7223 18.0562C35.7829 18.1035 35.8422 18.1508 35.9014 18.1981C35.9172 18.2112 35.9344 18.2243 35.9502 18.2375C36.0213 18.2952 36.0911 18.3543 36.1609 18.4135C36.182 18.4318 36.2031 18.4502 36.2241 18.4686C36.2768 18.5146 36.3308 18.5619 36.3822 18.6078C36.4033 18.6262 36.4244 18.6446 36.4454 18.6643C36.5113 18.7247 36.5772 18.7851 36.6417 18.8455C36.6628 18.8652 36.6838 18.8863 36.7049 18.906C36.7523 18.9519 36.7998 18.9979 36.8472 19.0439C36.8709 19.0675 36.8946 19.0911 36.9183 19.1148C36.9789 19.1765 37.0395 19.2382 37.1001 19.3013C37.1212 19.3236 37.1422 19.3459 37.1633 19.3683C37.2068 19.4142 37.2489 19.4602 37.2911 19.5062C38.1683 20.4689 38.8981 21.5668 39.4421 22.7673H42.6942C42.2925 21.6286 41.759 20.5516 41.1136 19.5521H41.1149C40.0572 17.9144 38.6978 16.4894 37.1146 15.3533C37.1133 15.352 37.1119 15.352 37.1106 15.3507C36.7958 15.1248 36.4718 14.9107 36.1399 14.7084C36.1319 14.7032 36.124 14.6993 36.1175 14.694C36.0411 14.648 35.9647 14.6021 35.8869 14.5561C35.8817 14.5535 35.8764 14.5495 35.8698 14.5469C35.6209 14.4024 35.3693 14.2645 35.1124 14.1332C35.0993 14.1266 35.0861 14.1201 35.0742 14.1135C35.0018 14.0767 34.9293 14.0413 34.8569 14.0058C34.8424 13.9992 34.8292 13.9927 34.8148 13.9848C34.7331 13.9454 34.6501 13.906 34.5684 13.8679C34.5658 13.8666 34.5645 13.8666 34.5618 13.8653C34.388 13.7852 34.2128 13.709 34.0363 13.6354C34.0192 13.6276 34.0007 13.621 33.9836 13.6144C33.9138 13.5855 33.844 13.5579 33.7742 13.5304C33.7531 13.5225 33.7333 13.5146 33.7123 13.5067C33.6398 13.4778 33.5674 13.4502 33.4936 13.424C33.4791 13.4187 33.4633 13.4122 33.4488 13.4069C33.2723 13.3412 33.0932 13.2795 32.9127 13.2204C32.8916 13.2138 32.8706 13.2073 32.8495 13.2007C32.781 13.1784 32.7125 13.1574 32.644 13.1364C32.6177 13.1285 32.5926 13.1206 32.5663 13.1127C32.4991 13.093 32.4319 13.072 32.3634 13.0536C32.3397 13.047 32.3173 13.0405 32.2936 13.0339C32.2041 13.009 32.1158 12.984 32.0249 12.9604H32.0236C31.9314 12.9367 31.8392 12.9131 31.747 12.8908C31.7246 12.8855 31.7022 12.8802 31.6798 12.875C31.6113 12.8579 31.5415 12.8422 31.473 12.8264C31.444 12.8198 31.4137 12.8133 31.3848 12.8067C31.3202 12.7923 31.2557 12.7791 31.1911 12.766C31.1622 12.7594 31.1332 12.7542 31.1042 12.7489C31.0291 12.7345 30.954 12.72 30.879 12.7056C30.8618 12.7029 30.8447 12.699 30.8263 12.6964C30.7328 12.6793 30.6392 12.6635 30.5457 12.6491C30.5246 12.6452 30.5036 12.6425 30.4812 12.6386C30.4087 12.6268 30.3376 12.6163 30.2652 12.6058C30.2335 12.6018 30.2019 12.5966 30.1703 12.5926C30.1058 12.5834 30.0425 12.5755 29.978 12.5677C29.9464 12.5637 29.9135 12.5598 29.8818 12.5558C29.8134 12.548 29.7435 12.5401 29.6737 12.5335C29.6474 12.5309 29.6224 12.5283 29.596 12.5256C29.5012 12.5164 29.4063 12.5073 29.3115 12.5007C29.2957 12.4994 29.2799 12.4981 29.2641 12.4967C29.1851 12.4902 29.1047 12.4849 29.0244 12.4797C28.9927 12.4784 28.9611 12.4757 28.9282 12.4744C28.8637 12.4705 28.7978 12.4678 28.7319 12.4652C28.6977 12.4639 28.6634 12.4626 28.6292 12.4613C28.562 12.4587 28.4948 12.4573 28.4277 12.4547C28.3974 12.4534 28.3671 12.4534 28.3368 12.4521C28.2406 12.4508 28.1431 12.4495 28.0457 12.4495C25.9026 12.4495 23.8623 12.8816 22.005 13.663C21.7732 13.7602 21.544 13.864 21.3174 13.973C21.2042 14.0268 21.0922 14.0833 20.9802 14.1398C20.7576 14.254 20.5377 14.3722 20.3203 14.497C19.995 14.6835 19.6775 14.8805 19.368 15.088C19.1612 15.2272 18.9583 15.3704 18.7594 15.5188C18.6593 15.5923 18.5605 15.6685 18.4631 15.7447C14.8474 18.5737 12.5251 22.9656 12.5251 27.8986C12.5251 32.8316 14.8474 37.2248 18.4631 40.0524C18.5605 40.1286 18.6593 40.2048 18.7594 40.2783C18.9583 40.4268 19.1612 40.5699 19.368 40.7091C19.6775 40.918 19.995 41.115 20.3203 41.3001C20.5363 41.4236 20.7563 41.5431 20.9802 41.6574C21.0922 41.7139 21.2042 41.7703 21.3174 41.8242C21.544 41.9332 21.7732 42.0356 22.005 42.1341C23.8623 42.9156 25.9026 43.3477 28.0457 43.3477C28.1431 43.3477 28.2393 43.3464 28.3368 43.3451C28.3671 43.3451 28.3974 43.3437 28.4277 43.3424C28.4948 43.3411 28.562 43.3385 28.6292 43.3359C28.6634 43.3345 28.6977 43.3332 28.7319 43.3319C28.7978 43.3293 28.8623 43.3253 28.9282 43.3227C28.9598 43.3214 28.9927 43.3188 29.0244 43.3175C29.1047 43.3122 29.1837 43.307 29.2641 43.3004C29.2799 43.2991 29.2957 43.2978 29.3115 43.2965C29.4063 43.2886 29.5012 43.2807 29.596 43.2715C29.6224 43.2689 29.6474 43.2662 29.6737 43.2636C29.7435 43.2571 29.812 43.2492 29.8818 43.2413C29.9148 43.2374 29.9464 43.2334 29.978 43.2295C30.0425 43.2216 30.1071 43.2137 30.1703 43.2045C30.2019 43.2006 30.2335 43.1966 30.2652 43.1914C30.3376 43.1809 30.41 43.1704 30.4812 43.1586C30.5022 43.1546 30.5233 43.152 30.5457 43.148C30.6392 43.1336 30.7328 43.1165 30.8263 43.1008C30.8434 43.0981 30.8605 43.0942 30.879 43.0916C30.954 43.0771 31.0291 43.064 31.1042 43.0482C31.1332 43.043 31.1622 43.0364 31.1911 43.0312C31.2557 43.018 31.3202 43.0049 31.3848 42.9904C31.4137 42.9839 31.444 42.9773 31.473 42.9707C31.5428 42.955 31.6113 42.9392 31.6798 42.9221C31.7022 42.9169 31.7246 42.9116 31.747 42.9064C31.8392 42.8841 31.9314 42.8604 32.0236 42.8368H32.0249C32.1145 42.8131 32.2041 42.7882 32.2936 42.7632C32.3173 42.7567 32.3397 42.7501 32.3634 42.7435C32.4306 42.7238 32.4991 42.7041 32.5663 42.6844C32.5926 42.6765 32.6177 42.6687 32.644 42.6608C32.7125 42.6398 32.781 42.6174 32.8495 42.5964C32.8706 42.5899 32.8916 42.5833 32.9127 42.5767C33.0932 42.5176 33.271 42.4559 33.4488 42.3902C33.4633 42.385 33.4791 42.3784 33.4936 42.3732C33.5674 42.3456 33.6398 42.318 33.7123 42.2904C33.7333 42.2825 33.7531 42.2747 33.7742 42.2668C33.844 42.2392 33.9138 42.2103 33.9836 42.1827C34.0007 42.1762 34.0192 42.1683 34.0363 42.1617C34.2128 42.0882 34.388 42.012 34.5618 41.9319C34.5645 41.9306 34.5658 41.9306 34.5684 41.9292C34.6514 41.8912 34.7331 41.8518 34.8148 41.8124C34.8292 41.8058 34.8424 41.7992 34.8569 41.7913C34.9293 41.7559 35.0018 41.7204 35.0742 41.6836C35.0874 41.6771 35.1006 41.6705 35.1124 41.6639C35.3693 41.5326 35.6222 41.3947 35.8698 41.2502C35.8751 41.2476 35.8804 41.2437 35.8869 41.241C35.9647 41.1964 36.0411 41.1504 36.1175 41.1031C36.1254 41.0979 36.1333 41.0939 36.1399 41.0887C36.4718 40.8864 36.7958 40.6724 37.1106 40.4465C37.1119 40.4451 37.1133 40.4451 37.1146 40.4438C38.6978 39.3078 40.0572 37.8828 41.1149 36.245H41.1136C41.759 35.2455 42.2912 34.1686 42.6942 33.0299H39.4421V33.022Z" fill="white"/>
<path d="M20.7953 31.1856V32.0511H23.784V31.1856H22.7342V23.8215H20.7953V24.687H21.849V31.1856H20.7953Z" fill="white"/>
<path d="M32.2152 25.2057V30.6667C32.2152 31.6714 32.7131 32.1731 33.7102 32.1731C34.706 32.1731 35.2052 31.6701 35.2052 30.6667V25.2057C35.2052 24.1983 34.7073 23.6953 33.7102 23.6953C32.7144 23.6953 32.2152 24.1996 32.2152 25.2057ZM34.3201 25.2057V30.6667C34.3201 31.0935 34.1172 31.3076 33.7102 31.3076C33.3045 31.3076 33.1004 31.0935 33.1004 30.6667V25.2057C33.1004 24.7788 33.3019 24.5648 33.7063 24.5648H33.7142C34.1172 24.5648 34.3201 24.7788 34.3201 25.2057Z" fill="white"/>
<path d="M27.591 26.6768C27.591 26.6833 27.591 26.6899 27.5897 26.6991C27.5884 26.7319 27.5844 26.7818 27.5765 26.8436C27.5858 26.7897 27.591 26.7332 27.591 26.6768Z" fill="white"/>
<path d="M27.5922 26.6577V25.2038C27.5922 24.1965 27.0956 23.6921 26.1011 23.6921C25.1014 23.6948 24.6022 24.1978 24.6022 25.2038V26.6577C24.6022 27.1187 24.8538 27.4786 25.3569 27.7373C24.8538 27.9947 24.6022 28.3546 24.6022 28.8169V30.6661C24.6022 31.6708 25.1014 32.1752 26.1011 32.1778C27.0956 32.1778 27.5922 31.6735 27.5922 30.6661V28.8169C27.5922 28.788 27.5909 28.7591 27.5896 28.7315C27.579 28.57 27.525 28.2364 27.2669 28.0381C27.1905 27.979 27.0956 27.933 26.9784 27.9067C26.9099 27.891 26.8348 27.8831 26.7505 27.8831C26.3699 27.8831 26.2118 27.975 26.1459 28.0525C26.0972 28.1103 26.0998 28.1602 26.0998 28.1602L26.1051 28.1655C26.5068 28.1681 26.7084 28.3795 26.7084 28.8024V28.8248V30.6661C26.7084 31.0929 26.5068 31.307 26.1025 31.307C25.6928 31.307 25.4886 31.0929 25.4886 30.6661V28.8011C25.4886 28.8011 25.3148 27.736 26.5358 27.736C26.7097 27.736 26.8546 27.7071 26.9771 27.6585C27.2814 27.5364 27.4368 27.2894 27.5145 27.0727C27.5725 26.9112 27.5883 26.7654 27.5922 26.6971C27.5935 26.6814 27.5935 26.6695 27.5935 26.663C27.5922 26.663 27.5922 26.6603 27.5922 26.6577ZM26.7071 26.6997C26.7071 27.0071 26.628 27.1988 26.47 27.2724C26.3909 27.3026 26.2737 27.3183 26.1169 27.3183C26.0761 27.3183 26.0353 27.317 25.9944 27.3144C25.6572 27.3013 25.4886 27.0924 25.4886 26.6853V25.2038C25.4886 24.7757 25.6928 24.5629 26.1025 24.5629C26.5055 24.5629 26.7084 24.777 26.7084 25.2038V26.6997H26.7071Z" fill="white"/>
<path d="M31.3993 26.6768C31.3993 26.6833 31.3993 26.6899 31.3979 26.6991C31.3966 26.7319 31.3927 26.7818 31.3848 26.8436C31.394 26.7897 31.3979 26.7332 31.3993 26.6768Z" fill="white"/>
<path d="M31.3987 26.658V25.2041C31.3987 24.1967 30.9021 23.6924 29.9077 23.6924C28.9079 23.695 28.4087 24.198 28.4087 25.2041V26.658C28.4087 27.119 28.6603 27.4788 29.1634 27.7375C28.6603 27.995 28.4087 28.3548 28.4087 28.8171V30.6663C28.4087 31.6711 28.9079 32.1754 29.9077 32.178C30.9021 32.178 31.3987 31.6737 31.3987 30.6663V28.8171C31.3987 28.7882 31.3974 28.7593 31.3961 28.7318C31.3856 28.5702 31.3316 28.2366 31.0734 28.0383C30.997 27.9792 30.9021 27.9332 30.7849 27.907C30.7164 27.8912 30.6413 27.8833 30.557 27.8833C30.1764 27.8833 30.0183 27.9753 29.9524 28.0528C29.9037 28.1105 29.9063 28.1604 29.9063 28.1604L29.9116 28.1657C30.3134 28.1683 30.5149 28.3798 30.5149 28.8027V28.825V30.6663C30.5149 31.0932 30.3134 31.3073 29.909 31.3073C29.4993 31.3073 29.2952 31.0932 29.2952 30.6663V28.8014C29.2952 28.8014 29.1213 27.7362 30.3423 27.7362C30.5162 27.7362 30.6611 27.7073 30.7836 27.6587C31.0879 27.5366 31.2433 27.2897 31.321 27.073C31.379 26.9114 31.3948 26.7657 31.3987 26.6974C31.4 26.6816 31.4 26.6698 31.4 26.6632C31.3987 26.6632 31.3987 26.6606 31.3987 26.658ZM30.5136 26.7C30.5136 27.0073 30.4345 27.1991 30.2765 27.2726C30.1974 27.3028 30.0802 27.3186 29.9235 27.3186C29.8826 27.3186 29.8418 27.3173 29.801 27.3146C29.4638 27.3015 29.2952 27.0927 29.2952 26.6855V25.2041C29.2952 24.7759 29.4993 24.5631 29.909 24.5631C30.312 24.5631 30.5149 24.7772 30.5149 25.2041V26.7H30.5136Z" fill="white"/>
<path d="M49.6705 26.2266C49.6691 26.2135 49.6678 26.1991 49.6665 26.1859H40.4145C40.4909 26.7428 40.5304 27.3102 40.5304 27.888C40.5304 28.4699 40.4896 29.0438 40.4119 29.6046H40.429H43.4757H46.55C46.446 30.7354 46.2418 31.8373 45.9428 32.9012C45.9309 32.9419 45.9191 32.9826 45.9072 33.0233C43.6733 40.7682 36.5064 46.4354 28.0078 46.4354C17.7231 46.4354 9.38529 38.1349 9.38529 27.8959C9.38529 27.104 9.43534 26.3238 9.53282 25.5581C9.63424 24.7938 9.78572 24.0267 9.98725 23.2611C12.6019 13.3583 22.7851 7.44158 32.7326 10.0447C39.2462 11.7494 44.0421 16.685 45.8427 22.67H49.0632C48.7906 21.6023 48.4376 20.5608 48.0095 19.5534H48.0582C44.7771 11.7494 37.0359 6.26611 28.0078 6.26611C16.9394 6.26611 7.80334 14.5075 6.45321 25.1615C5.03854 35.8076 11.7694 46.09 22.4743 48.8914C32.3625 51.4787 42.4496 46.8478 47.1045 38.2754L47.0743 38.2676C47.9713 36.6351 48.6654 34.8765 49.1172 33.0233C49.1278 32.9826 49.1383 32.9419 49.1475 32.9012C49.4017 31.8308 49.5782 30.7302 49.6665 29.6046C49.6678 29.5915 49.6691 29.577 49.6705 29.5639C49.7126 29.0136 49.7337 28.4567 49.7337 27.8959C49.7337 27.3338 49.7126 26.7769 49.6705 26.2266Z" fill="white"/>
<path d="M16.4694 62.8241H15.4949C15.461 62.6816 15.4372 62.3896 15.4265 62.2172C15.2013 62.7551 14.7309 62.9421 14.2076 62.9421C13.014 62.9421 12.6298 62.0808 12.6298 60.7107V56.9129C12.6298 55.5918 13.1454 54.6201 14.5549 54.6201C16.258 54.6201 16.4378 55.8684 16.4378 56.7366V56.9995H15.1874V56.6761C15.1874 56.2493 15.1252 55.7565 14.5542 55.7565C14.0984 55.7565 13.904 56.0707 13.904 56.7167V60.8532C13.904 61.5007 14.0915 61.8386 14.5442 61.8386C15.0868 61.8386 15.2182 61.3865 15.2182 60.5551V59.375H14.5088V58.3029H16.4701V62.8241H16.4694Z" fill="white"/>
<path d="M18.6558 54.738V60.8883C18.6558 61.4792 18.8495 61.8148 19.3337 61.8148C19.8302 61.8148 19.99 61.437 19.99 60.8899V54.738H21.242V60.8646C21.242 62.1405 20.6633 62.942 19.3106 62.942C18.0218 62.942 17.4047 62.247 17.4047 60.8684V54.738H18.6558Z" fill="white"/>
<path d="M25.3169 59.1305H23.5346V61.6776H25.5889L25.4306 62.8248H22.2834V54.738H25.4152V55.8951H23.5339V57.9833H25.3161V59.1305H25.3169Z" fill="white"/>
<path d="M27.4434 54.7383V60.8886C27.4434 61.4794 27.6371 61.815 28.1213 61.815C28.6178 61.815 28.7776 61.4373 28.7776 60.8901V54.7383H30.0296V60.8648C30.0296 62.1407 29.4508 62.9423 28.0982 62.9423C26.8094 62.9423 26.1923 62.2472 26.1923 60.8687V54.7383H27.4434Z" fill="white"/>
<path d="M31.084 54.738H32.8186C34.5393 54.738 34.9574 55.6269 34.9574 57.1274V60.2278C34.9574 61.4638 34.7445 62.8233 32.8163 62.8233H31.084V54.738ZM32.3352 61.7627H32.7363C33.5587 61.7627 33.6847 61.2347 33.6847 60.3979V57.0293C33.6847 56.286 33.5533 55.8101 32.7286 55.8101H32.3352V61.7627Z" fill="white"/>
<path d="M38.9144 59.1305H37.1322V61.6776H39.1865L39.0281 62.8248H35.881V54.738H39.0128V55.8951H37.1322V57.9833H38.9144V59.1305Z" fill="white"/>
<path d="M40.8104 55.8961H39.5085V54.739H43.3704V55.8961H42.0609V62.8242H40.8104V55.8961Z" fill="white"/>
</svg>
