<svg width="24" height="30" viewBox="0 0 24 30" fill="none" xmlns="http://www.w3.org/2000/svg">
<path fill-rule="evenodd" clip-rule="evenodd" d="M12.25 0.666748C8.75217 0.666748 5.91664 3.50228 5.91664 7.00008C5.91664 10.4979 8.75217 13.3334 12.25 13.3334C15.7478 13.3334 18.5833 10.4979 18.5833 7.00008C18.5833 3.50228 15.7478 0.666748 12.25 0.666748ZM7.91664 7.00008C7.91664 4.60685 9.85674 2.66675 12.25 2.66675C14.6432 2.66675 16.5833 4.60685 16.5833 7.00008C16.5833 9.39332 14.6432 11.3334 12.25 11.3334C9.85674 11.3334 7.91664 9.39332 7.91664 7.00008Z" fill="white"/>
<path fill-rule="evenodd" clip-rule="evenodd" d="M12.25 15.3334C9.16524 15.3334 6.32321 16.0346 4.21724 17.2192C2.14262 18.3862 0.583309 20.1548 0.583309 22.3334L0.58322 22.4694C0.581714 24.0185 0.579823 25.9627 2.28519 27.3515C3.12448 28.0349 4.29861 28.5209 5.88492 28.842C7.47566 29.164 9.54894 29.3334 12.25 29.3334C14.951 29.3334 17.0243 29.164 18.615 28.842C20.2013 28.5209 21.3755 28.0349 22.2148 27.3515C23.9201 25.9627 23.9182 24.0185 23.9167 22.4694L23.9166 22.3334C23.9166 20.1548 22.3573 18.3862 20.2827 17.2192C18.1767 16.0346 15.3347 15.3334 12.25 15.3334ZM2.58331 22.3334C2.58331 21.1983 3.41181 19.9669 5.19776 18.9623C6.95237 17.9754 9.44367 17.3334 12.25 17.3334C15.0563 17.3334 17.5476 17.9754 19.3022 18.9623C21.0881 19.9669 21.9166 21.1983 21.9166 22.3334C21.9166 24.0772 21.8629 25.0588 20.9519 25.8006C20.4578 26.203 19.6319 26.5956 18.2183 26.8818C16.809 27.167 14.8823 27.3334 12.25 27.3334C9.61767 27.3334 7.69096 27.167 6.2817 26.8818C4.86801 26.5956 4.04213 26.203 3.54809 25.8006C2.63706 25.0588 2.58331 24.0772 2.58331 22.3334Z" fill="white"/>
<path fill-rule="evenodd" clip-rule="evenodd" d="M12.25 0.666748C8.75217 0.666748 5.91664 3.50228 5.91664 7.00008C5.91664 10.4979 8.75217 13.3334 12.25 13.3334C15.7478 13.3334 18.5833 10.4979 18.5833 7.00008C18.5833 3.50228 15.7478 0.666748 12.25 0.666748ZM7.91664 7.00008C7.91664 4.60685 9.85674 2.66675 12.25 2.66675C14.6432 2.66675 16.5833 4.60685 16.5833 7.00008C16.5833 9.39332 14.6432 11.3334 12.25 11.3334C9.85674 11.3334 7.91664 9.39332 7.91664 7.00008Z" stroke="white"/>
<path fill-rule="evenodd" clip-rule="evenodd" d="M12.25 15.3334C9.16524 15.3334 6.32321 16.0346 4.21724 17.2192C2.14262 18.3862 0.583309 20.1548 0.583309 22.3334L0.58322 22.4694C0.581714 24.0185 0.579823 25.9627 2.28519 27.3515C3.12448 28.0349 4.29861 28.5209 5.88492 28.842C7.47566 29.164 9.54894 29.3334 12.25 29.3334C14.951 29.3334 17.0243 29.164 18.615 28.842C20.2013 28.5209 21.3755 28.0349 22.2148 27.3515C23.9201 25.9627 23.9182 24.0185 23.9167 22.4694L23.9166 22.3334C23.9166 20.1548 22.3573 18.3862 20.2827 17.2192C18.1767 16.0346 15.3347 15.3334 12.25 15.3334ZM2.58331 22.3334C2.58331 21.1983 3.41181 19.9669 5.19776 18.9623C6.95237 17.9754 9.44367 17.3334 12.25 17.3334C15.0563 17.3334 17.5476 17.9754 19.3022 18.9623C21.0881 19.9669 21.9166 21.1983 21.9166 22.3334C21.9166 24.0772 21.8629 25.0588 20.9519 25.8006C20.4578 26.203 19.6319 26.5956 18.2183 26.8818C16.809 27.167 14.8823 27.3334 12.25 27.3334C9.61767 27.3334 7.69096 27.167 6.2817 26.8818C4.86801 26.5956 4.04213 26.203 3.54809 25.8006C2.63706 25.0588 2.58331 24.0772 2.58331 22.3334Z" stroke="white"/>
</svg>
